<?xml version="1.0" standalone="no"?>
<!DOCTYPE svg PUBLIC "-//W3C//DTD SVG 20010904//EN"
 "http://www.w3.org/TR/2001/REC-SVG-20010904/DTD/svg10.dtd">
<svg version="1.0" xmlns="http://www.w3.org/2000/svg"
 width="700.000000pt" height="700.000000pt" viewBox="0 0 700.000000 700.000000"
 preserveAspectRatio="xMidYMid meet">
<metadata>
Created by potrace 1.11, written by Peter Selinger 2001-2013
</metadata>
<g transform="translate(0.000000,700.000000) scale(0.100000,-0.100000)"
fill="#000000" stroke="none">
<path d="M3477 6824 c-1 -1 -69 -4 -152 -8 -82 -3 -159 -8 -170 -10 -11 -2
-47 -7 -80 -11 -125 -16 -164 -23 -290 -51 -60 -13 -135 -31 -165 -40 -30 -8
-59 -16 -65 -18 -9 -2 -92 -27 -105 -31 -6 -2 -19 -7 -165 -63 -137 -52 -397
-180 -500 -247 -38 -25 -77 -48 -85 -52 -29 -13 -225 -157 -310 -227 -75 -62
-119 -102 -250 -228 -236 -227 -477 -570 -640 -912 -145 -302 -260 -693 -295
-1001 -4 -32 -8 -67 -10 -76 -14 -73 -22 -490 -11 -569 3 -19 8 -71 11 -115 3
-44 8 -87 10 -95 3 -13 7 -39 20 -136 2 -11 8 -45 14 -75 6 -30 13 -64 16 -76
9 -48 67 -259 91 -331 91 -271 237 -570 388 -792 52 -76 122 -174 143 -200 7
-8 40 -49 75 -90 436 -524 1035 -906 1693 -1080 146 -38 253 -61 360 -74 28
-4 61 -9 75 -11 107 -17 251 -25 445 -25 173 0 178 1 410 26 371 40 850 202
1225 415 147 83 450 302 548 397 10 9 50 47 88 83 242 231 432 475 602 775 47
83 172 337 172 350 0 3 6 20 14 37 59 135 158 472 182 622 3 21 7 46 9 55 2
10 7 40 11 67 3 26 8 56 10 66 2 10 6 53 9 95 4 42 9 93 11 112 5 48 4 359 -1
440 -6 84 -15 181 -20 200 -2 8 -6 40 -10 71 -6 60 -11 90 -19 117 -3 9 -7 35
-11 56 -28 189 -148 542 -270 791 -214 437 -525 831 -885 1118 -47 38 -93 75
-103 83 -39 32 -207 145 -292 196 -185 112 -448 233 -648 299 -99 33 -368 103
-429 113 -70 11 -110 18 -127 21 -15 3 -80 11 -156 20 -68 8 -363 23 -368 19z
m1292 -945 c140 -50 255 -175 291 -318 15 -56 14 -158 -1 -214 -38 -144 -160
-271 -301 -313 -281 -85 -573 130 -570 421 1 85 9 120 43 193 55 115 167 206
294 239 57 14 193 10 244 -8z m-1059 -463 c79 -9 272 -47 291 -57 8 -4 20 -30
27 -57 38 -166 166 -323 327 -402 143 -70 306 -83 459 -38 l39 12 59 -64 c74
-80 182 -223 236 -311 140 -230 244 -540 267 -800 l7 -76 -218 -2 c-121 -1
-258 -4 -306 -5 -48 -1 -93 1 -98 4 -6 4 -13 24 -16 46 -2 21 -6 50 -9 64 -3
14 -8 38 -11 54 -12 67 -68 221 -109 301 -62 119 -111 189 -215 309 -39 44
-168 149 -247 200 -105 68 -269 139 -374 162 -161 35 -327 46 -470 31 -87 -9
-249 -50 -327 -84 -37 -16 -66 -23 -71 -17 -5 5 -23 34 -39 64 -16 30 -50 91
-75 135 -24 44 -57 103 -72 130 -15 28 -48 85 -71 127 -24 43 -44 80 -44 82 0
18 252 114 380 145 116 28 148 33 290 49 76 9 310 8 390 -2z m-1120 -578 c85
-143 156 -266 158 -273 1 -6 -18 -26 -42 -44 -25 -17 -81 -67 -124 -110 -359
-356 -473 -900 -289 -1378 85 -219 243 -431 415 -556 28 -20 41 -36 37 -47 -4
-12 -299 -513 -312 -529 -3 -4 -90 54 -103 69 -3 3 -23 19 -45 35 -41 31 -221
207 -265 260 -147 175 -268 394 -348 627 l-40 117 59 62 c156 166 213 412 143
619 -28 82 -83 174 -143 238 l-59 63 38 112 c69 204 174 403 299 566 96 127
295 321 400 391 13 8 30 20 39 27 10 7 19 12 22 12 3 1 75 -117 160 -261z
m-1241 -908 c119 -29 232 -121 287 -235 64 -134 64 -255 -1 -390 -81 -169
-271 -270 -456 -243 -117 18 -237 92 -303 187 -90 130 -100 315 -26 462 30 58
125 151 186 181 104 52 203 64 313 38z m3946 -553 l120 -2 1 -45 c1 -91 -47
-327 -91 -443 -8 -20 -15 -40 -16 -45 -1 -4 -5 -17 -10 -30 -5 -13 -9 -25 -9
-27 0 -3 -21 -48 -46 -101 -83 -176 -199 -348 -336 -498 l-54 -59 -69 18
c-329 84 -664 -109 -754 -435 l-18 -65 -85 -22 c-47 -12 -110 -24 -139 -28
-30 -3 -67 -9 -84 -11 -56 -10 -299 -11 -385 -2 -121 12 -241 35 -345 65 -91
26 -303 107 -318 123 -5 4 16 52 47 105 31 54 56 100 56 103 0 2 15 30 34 61
18 31 50 88 71 126 57 106 86 155 93 155 3 0 35 -12 70 -26 240 -96 507 -112
791 -50 141 31 408 166 497 251 6 5 32 28 58 50 51 42 152 160 203 235 77 113
168 325 187 435 3 17 8 41 10 55 3 14 8 43 11 65 3 21 10 42 15 45 9 5 137 5
495 -3z m-529 -1412 c69 -23 123 -57 173 -106 214 -214 159 -572 -109 -709
-69 -35 -136 -49 -220 -46 -332 12 -529 379 -359 668 101 171 327 255 515 193z"/>
</g>
</svg>
