<svg xmlns="http://www.w3.org/2000/svg" viewBox="0 0 158.74 60.66"><defs><style>.cls-1,.cls-2{fill:#4caf50;}.cls-1{fill-rule:evenodd;}</style></defs><title>fmls-logo-tag-RGB</title><g id="Layer_1" data-name="Layer 1"><path class="cls-1" d="M151.14,52.66l12.27-.23s.94,4.2,8.09,4.16c6.63,0,6-4,6-4.39,0,0,.5-2.63-12.5-4.4-14.38-1.95-12.26-11.57-12.26-11.57s.28-9.83,17.82-10.18c18.45-.36,18.51,10.18,18.51,10.18l-12,.93s-.58-3.59-6.25-3.47S165,36.36,165,37.16s1.09,1.87,6,3,14.93,2.49,17.35,6.71,1.26,10.67-3.47,14.11c-4.34,3.16-11.85,3.05-13,3h-.32c-1.51.06-13.07.41-16.89-4C151,55.79,151.14,52.66,151.14,52.66Z" transform="translate(-43.1 -26)"/><path class="cls-1" d="M131,27.44h10.88V52.66h7.4s-.4,2.61,1.85,6a13.06,13.06,0,0,0,5.12,4.62H131Z" transform="translate(-43.1 -26)"/><path class="cls-1" d="M67.85,63.3,98.62,27.55H107V50.81L120.6,27.55h8.1V63.3H119V46.64L108.11,63.3H97.93V42.71L80.11,63.3Z" transform="translate(-43.1 -26)"/><path class="cls-1" d="M51,63.3H63.45V50.81h12l7.41-8.33H63.45v-6H88.21l7.63-8.91H61.37L51,39.7Z" transform="translate(-43.1 -26)"/><path class="cls-2" d="M198,26.42a5.16,5.16,0,0,1,1.73,1.16,5.24,5.24,0,0,1,1.15,1.73,5.5,5.5,0,0,1,.42,2.15,5.41,5.41,0,0,1-.42,2.14A5.26,5.26,0,0,1,198,36.48a5.74,5.74,0,0,1-4.31,0,5.39,5.39,0,0,1-3.3-5,5.5,5.5,0,0,1,.42-2.15,5.4,5.4,0,0,1,1.15-1.73,5.27,5.27,0,0,1,1.73-1.16,5.74,5.74,0,0,1,4.31,0Zm-4,.72a4.5,4.5,0,0,0-2.42,2.48,5,5,0,0,0,0,3.67,4.5,4.5,0,0,0,1,1.48,4.72,4.72,0,0,0,5.12,1,4.57,4.57,0,0,0,2.43-2.48,4.78,4.78,0,0,0-1-5.15,4.68,4.68,0,0,0-1.46-1,4.83,4.83,0,0,0-3.66,0Zm-.14,7.47V28.3h2.42a2.27,2.27,0,0,1,1.56.45,1.66,1.66,0,0,1,.49,1.3,1.81,1.81,0,0,1-.13.72,1.42,1.42,0,0,1-.34.52,1.72,1.72,0,0,1-.51.33,2.47,2.47,0,0,1-.6.19l1.87,2.8h-.91l-1.77-2.8h-1.31v2.8Zm2.5-3.48A2.19,2.19,0,0,0,197,31a1,1,0,0,0,.42-.33,1.28,1.28,0,0,0,0-1.16,1.1,1.1,0,0,0-.34-.34,1.43,1.43,0,0,0-.48-.16,3.21,3.21,0,0,0-.55-.05h-1.43v2.19h1Z" transform="translate(-43.1 -26)"/><path d="M48.87,73.71H44.25a.05.05,0,0,0-.06.06v3.82s0,.07.06.07h3.1c.11,0,.16,0,.16.15v.65c0,.1,0,.15-.16.15h-3.1a.05.05,0,0,0-.06.06V83.4a.13.13,0,0,1-.15.15h-.79a.13.13,0,0,1-.15-.15V72.91c0-.11,0-.16.15-.16h5.62c.1,0,.15,0,.15.16v.64C49,73.66,49,73.71,48.87,73.71Z" transform="translate(-43.1 -26)"/><path d="M50.48,74.08a.86.86,0,0,1-.24-.62.82.82,0,0,1,.86-.86.86.86,0,0,1,.62.24.84.84,0,0,1,.25.62.84.84,0,0,1-.87.86A.83.83,0,0,1,50.48,74.08Zm.05,9.32V75.9a.14.14,0,0,1,.16-.16h.78a.15.15,0,0,1,.16.16v7.5a.14.14,0,0,1-.16.15h-.78C50.58,83.55,50.53,83.5,50.53,83.4Z" transform="translate(-43.1 -26)"/><path d="M57.66,75.85c.07,0,.09.09.07.19l-.18.8c0,.1-.07.13-.19.09a1.33,1.33,0,0,0-.54-.11l-.18,0a1.44,1.44,0,0,0-1.13.59,2.15,2.15,0,0,0-.44,1.38V83.4a.14.14,0,0,1-.16.15h-.79A.13.13,0,0,1,54,83.4V75.9a.14.14,0,0,1,.15-.16h.79a.15.15,0,0,1,.16.16v1s0,0,0,0a.05.05,0,0,0,0,0,2.28,2.28,0,0,1,.7-.92,1.68,1.68,0,0,1,1-.33A1.62,1.62,0,0,1,57.66,75.85Z" transform="translate(-43.1 -26)"/><path d="M59.4,83.06a1.8,1.8,0,0,1-.72-1.47v-.14a.13.13,0,0,1,.15-.15h.76a.13.13,0,0,1,.15.15v.11a1.08,1.08,0,0,0,.44.85,1.67,1.67,0,0,0,1.13.37,1.62,1.62,0,0,0,1.1-.36,1.09,1.09,0,0,0,.41-.89.93.93,0,0,0-.23-.65,1.76,1.76,0,0,0-.57-.42,9.5,9.5,0,0,0-.94-.35,10.86,10.86,0,0,1-1.2-.49,2.45,2.45,0,0,1-.81-.69,1.82,1.82,0,0,1-.33-1.12,2,2,0,0,1,.69-1.57,2.81,2.81,0,0,1,1.84-.57,2.78,2.78,0,0,1,1.87.6,1.92,1.92,0,0,1,.7,1.54v0a.14.14,0,0,1-.15.16H63a.15.15,0,0,1-.16-.16v-.06a1.08,1.08,0,0,0-.42-.87,1.73,1.73,0,0,0-1.13-.35,1.68,1.68,0,0,0-1.08.33,1.06,1.06,0,0,0-.4.86.93.93,0,0,0,.4.82,6.24,6.24,0,0,0,1.29.58,9,9,0,0,1,1.25.5,2.41,2.41,0,0,1,.84.68,1.8,1.8,0,0,1,.35,1.14A2,2,0,0,1,63.21,83a2.9,2.9,0,0,1-1.9.59A3,3,0,0,1,59.4,83.06Z" transform="translate(-43.1 -26)"/><path d="M68.59,76.61H67.13a.05.05,0,0,0-.06.06V81.3a1.42,1.42,0,0,0,.28,1,1.27,1.27,0,0,0,.92.28h.26a.14.14,0,0,1,.16.16v.65a.14.14,0,0,1-.16.15l-.48,0a2.37,2.37,0,0,1-1.52-.42A1.81,1.81,0,0,1,66,81.64v-5a.05.05,0,0,0-.06-.06h-.77a.14.14,0,0,1-.16-.16V75.9a.15.15,0,0,1,.16-.16h.77a.05.05,0,0,0,.06-.06V73.92c0-.1,0-.15.16-.15h.75a.14.14,0,0,1,.16.15v1.76a.05.05,0,0,0,.06.06h1.46a.14.14,0,0,1,.16.16v.55A.14.14,0,0,1,68.59,76.61Z" transform="translate(-43.1 -26)"/><path d="M73.64,74.08a.9.9,0,0,1-.23-.62.86.86,0,0,1,.23-.62.93.93,0,0,1,1.25,0,.83.83,0,0,1,.24.62.88.88,0,0,1-1.49.62Zm.06,9.32V75.9a.14.14,0,0,1,.15-.16h.79a.14.14,0,0,1,.15.16v7.5a.13.13,0,0,1-.15.15h-.79A.13.13,0,0,1,73.7,83.4Z" transform="translate(-43.1 -26)"/><path d="M81.87,76.32a2.71,2.71,0,0,1,.62,1.88v5.2a.13.13,0,0,1-.15.15h-.79a.13.13,0,0,1-.15-.15V78.35A1.88,1.88,0,0,0,81,77.07a1.44,1.44,0,0,0-1.14-.48,1.49,1.49,0,0,0-1.17.49,1.88,1.88,0,0,0-.44,1.3v5a.13.13,0,0,1-.15.15h-.79a.13.13,0,0,1-.15-.15V75.9a.14.14,0,0,1,.15-.16h.79a.14.14,0,0,1,.15.16v.6a.05.05,0,0,0,0,0s0,0,0,0a2.06,2.06,0,0,1,1.85-.89A2.19,2.19,0,0,1,81.87,76.32Z" transform="translate(-43.1 -26)"/><path d="M88.42,82.85a2.85,2.85,0,0,1-.85-2.17V75.62a2.85,2.85,0,0,1,.85-2.17,3.13,3.13,0,0,1,2.26-.82,3.41,3.41,0,0,1,1.63.37,2.64,2.64,0,0,1,1.09,1,2.86,2.86,0,0,1,.4,1.53V76a.14.14,0,0,1-.16.16h-.78A.14.14,0,0,1,92.7,76v-.43a1.92,1.92,0,0,0-.55-1.43,2,2,0,0,0-1.47-.55,2,2,0,0,0-1.46.55,2,2,0,0,0-.56,1.46v5.12a2,2,0,0,0,.56,1.45,2,2,0,0,0,1.48.56,2,2,0,0,0,1.45-.53,1.85,1.85,0,0,0,.55-1.42V79.09a.05.05,0,0,0-.06-.06h-1.8c-.11,0-.16,0-.16-.15v-.65a.14.14,0,0,1,.16-.16h2.8a.14.14,0,0,1,.16.16v2.4A3,3,0,0,1,93,82.85a3.54,3.54,0,0,1-4.53,0Z" transform="translate(-43.1 -26)"/><path d="M99.42,82.41a1.68,1.68,0,0,0,.61-.8.14.14,0,0,1,.18-.11l.71.14c.06,0,.09,0,.1.07a.14.14,0,0,1,0,.11,2.48,2.48,0,0,1-1,1.36,2.86,2.86,0,0,1-1.69.49,2.77,2.77,0,0,1-1.83-.59,2.58,2.58,0,0,1-.88-1.61,7.34,7.34,0,0,1-.08-.91c0-.35,0-.64,0-.87V79.2a11,11,0,0,1,.06-1.28,2.53,2.53,0,0,1,.85-1.67,3.06,3.06,0,0,1,3.78,0,2.63,2.63,0,0,1,.83,1.79c0,.34,0,1,0,1.86,0,.11-.05.16-.15.16H96.74a.05.05,0,0,0-.06.06c0,.32,0,.67,0,1.06a1.67,1.67,0,0,0,.53,1.08,1.72,1.72,0,0,0,1.17.41A1.64,1.64,0,0,0,99.42,82.41ZM97.23,77a1.73,1.73,0,0,0-.52,1.08q0,.64,0,1.08a.05.05,0,0,0,.06.06H100a.05.05,0,0,0,.06-.06c0-.3,0-.66-.06-1.07A1.73,1.73,0,0,0,99.48,77a1.58,1.58,0,0,0-1.12-.41A1.59,1.59,0,0,0,97.23,77Z" transform="translate(-43.1 -26)"/><path d="M103.79,83.06a2.58,2.58,0,0,1-.88-1.64,15.58,15.58,0,0,1-.09-1.79,14.91,14.91,0,0,1,.09-1.76,2.55,2.55,0,0,1,.87-1.63,3.1,3.1,0,0,1,3.72,0,2.46,2.46,0,0,1,.87,1.63,11.31,11.31,0,0,1,.1,1.76,11.58,11.58,0,0,1-.1,1.79,2.44,2.44,0,0,1-.87,1.64,3.13,3.13,0,0,1-3.71,0Zm3-.75a1.76,1.76,0,0,0,.55-1.09c0-.38.06-.9.06-1.57a15.77,15.77,0,0,0-.06-1.58,1.69,1.69,0,0,0-.53-1.09,1.65,1.65,0,0,0-1.14-.4,1.6,1.6,0,0,0-1.12.4,1.75,1.75,0,0,0-.54,1.09,20.7,20.7,0,0,0,0,3.15,1.69,1.69,0,0,0,.53,1.09,1.64,1.64,0,0,0,1.13.41A1.61,1.61,0,0,0,106.76,82.31Z" transform="translate(-43.1 -26)"/><path d="M114.11,75.85c.07,0,.1.09.08.19l-.19.8q0,.15-.18.09a1.41,1.41,0,0,0-.54-.11l-.19,0a1.42,1.42,0,0,0-1.12.59,2.16,2.16,0,0,0-.45,1.38V83.4a.13.13,0,0,1-.15.15h-.79a.14.14,0,0,1-.16-.15V75.9a.15.15,0,0,1,.16-.16h.79a.14.14,0,0,1,.15.16v1s0,0,0,0,0,0,0,0a2.37,2.37,0,0,1,.7-.92,1.7,1.7,0,0,1,1-.33A1.59,1.59,0,0,1,114.11,75.85Z" transform="translate(-43.1 -26)"/><path d="M119.73,75.74h.78a.14.14,0,0,1,.16.16v7.43c0,2.33-1.27,3.43-3.81,3.32a.15.15,0,0,1-.16-.17l0-.69a.15.15,0,0,1,0-.12.11.11,0,0,1,.11,0,2.87,2.87,0,0,0,2.08-.54,2.42,2.42,0,0,0,.62-1.84v-.51a.05.05,0,0,0,0,0s0,0,0,0a2,2,0,0,1-1.79.87,2.36,2.36,0,0,1-1.65-.6,2.53,2.53,0,0,1-.82-1.61,13.38,13.38,0,0,1-.1-1.74,12.14,12.14,0,0,1,.11-1.82,2.59,2.59,0,0,1,.78-1.61,2.35,2.35,0,0,1,1.64-.6,2.12,2.12,0,0,1,1.83.85s0,0,0,0,0,0,0,0V75.9A.14.14,0,0,1,119.73,75.74Zm-.16,3.89c0-.62,0-1.14,0-1.57A1.75,1.75,0,0,0,119,77a1.52,1.52,0,0,0-1.09-.41,1.56,1.56,0,0,0-1.1.41,1.79,1.79,0,0,0-.53,1.07,15.55,15.55,0,0,0-.06,1.57c0,.52,0,1,.06,1.54a1.65,1.65,0,0,0,.52,1.07,1.56,1.56,0,0,0,1.11.41,1.48,1.48,0,0,0,1.09-.41,1.72,1.72,0,0,0,.49-1.07C119.56,80.77,119.57,80.26,119.57,79.63Z" transform="translate(-43.1 -26)"/><path d="M122.82,74.08a.86.86,0,0,1-.24-.62.83.83,0,0,1,.24-.62.92.92,0,0,1,1.24,0,.84.84,0,0,1,.25.62.87.87,0,0,1-.25.62.92.92,0,0,1-1.24,0Zm.05,9.32V75.9a.14.14,0,0,1,.16-.16h.78a.14.14,0,0,1,.16.16v7.5c0,.1,0,.15-.16.15H123C122.92,83.55,122.87,83.5,122.87,83.4Z" transform="translate(-43.1 -26)"/><path d="M130.75,76.33a2.54,2.54,0,0,1,.7,1.88V83.4a.13.13,0,0,1-.15.15h-.79a.14.14,0,0,1-.16-.15v-.56s0,0,0,0,0,0-.05,0a2.17,2.17,0,0,1-.87.65,3.13,3.13,0,0,1-1.17.21,2.65,2.65,0,0,1-1.66-.52,2,2,0,0,1-.68-1.71,2.27,2.27,0,0,1,.79-1.88,3.4,3.4,0,0,1,2.17-.64h1.43a.05.05,0,0,0,.06-.06v-.59A1.84,1.84,0,0,0,130,77a1.46,1.46,0,0,0-1.16-.45,1.64,1.64,0,0,0-1,.3,1.24,1.24,0,0,0-.48.79c0,.09-.06.14-.16.14l-.85,0a.16.16,0,0,1-.12,0,.14.14,0,0,1,0-.11,2,2,0,0,1,.84-1.44,2.91,2.91,0,0,1,1.81-.55A2.63,2.63,0,0,1,130.75,76.33Zm-1,6a1.37,1.37,0,0,0,.56-1.18V79.86a.05.05,0,0,0-.06-.06h-1.36a2.24,2.24,0,0,0-1.4.41,1.38,1.38,0,0,0-.52,1.16,1.22,1.22,0,0,0,.4,1,1.54,1.54,0,0,0,1.05.34A2.16,2.16,0,0,0,129.79,82.29Z" transform="translate(-43.1 -26)"/><path d="M141.85,83.43l-1.92-4.77a.06.06,0,0,0-.06,0h-2a.05.05,0,0,0-.06.06V83.4a.13.13,0,0,1-.15.15h-.79a.14.14,0,0,1-.16-.15V72.91a.14.14,0,0,1,.16-.16h3.27a2.75,2.75,0,0,1,1.43.37,2.59,2.59,0,0,1,1,1,3.38,3.38,0,0,1,.34,1.56,3.16,3.16,0,0,1-.5,1.79,2.44,2.44,0,0,1-1.39,1s-.06,0,0,.08l2,4.78v.07c0,.08,0,.12-.14.12H142A.16.16,0,0,1,141.85,83.43Zm-4-9.66v3.9a.05.05,0,0,0,.06.06H140a1.66,1.66,0,0,0,1.3-.55,2.42,2.42,0,0,0,0-2.92,1.66,1.66,0,0,0-1.3-.55h-2.13A.05.05,0,0,0,137.82,73.77Z" transform="translate(-43.1 -26)"/><path d="M148.3,82.41a1.68,1.68,0,0,0,.61-.8.14.14,0,0,1,.19-.11l.7.14c.06,0,.09,0,.1.07a.14.14,0,0,1,0,.11,2.48,2.48,0,0,1-.95,1.36,2.86,2.86,0,0,1-1.69.49,2.77,2.77,0,0,1-1.83-.59,2.58,2.58,0,0,1-.88-1.61,7.34,7.34,0,0,1-.08-.91c0-.35,0-.64,0-.87V79.2a11,11,0,0,1,.06-1.28,2.5,2.5,0,0,1,.86-1.67,2.7,2.7,0,0,1,1.84-.63,2.77,2.77,0,0,1,1.93.68,2.63,2.63,0,0,1,.83,1.79c0,.34,0,1,0,1.86a.14.14,0,0,1-.16.16h-4.26a.05.05,0,0,0-.06.06c0,.32,0,.67,0,1.06a1.63,1.63,0,0,0,.54,1.08,1.68,1.68,0,0,0,1.16.41A1.64,1.64,0,0,0,148.3,82.41ZM146.11,77a1.73,1.73,0,0,0-.52,1.08q0,.64,0,1.08a.05.05,0,0,0,.06.06h3.26a.05.05,0,0,0,.06-.06c0-.3,0-.66-.06-1.07a1.68,1.68,0,0,0-.52-1.08,1.58,1.58,0,0,0-1.12-.41A1.59,1.59,0,0,0,146.11,77Z" transform="translate(-43.1 -26)"/><path d="M156.28,76.33a2.58,2.58,0,0,1,.7,1.88V83.4c0,.1,0,.15-.16.15H156c-.11,0-.16,0-.16-.15v-.56a.08.08,0,0,0,0,0s0,0-.05,0a2.17,2.17,0,0,1-.87.65,3.13,3.13,0,0,1-1.17.21,2.65,2.65,0,0,1-1.66-.52,2,2,0,0,1-.69-1.71,2.27,2.27,0,0,1,.8-1.88,3.4,3.4,0,0,1,2.17-.64h1.43a.05.05,0,0,0,.06-.06v-.59a1.84,1.84,0,0,0-.39-1.24,1.46,1.46,0,0,0-1.17-.45,1.63,1.63,0,0,0-1,.3,1.16,1.16,0,0,0-.48.79c0,.09-.06.14-.17.14l-.84,0a.15.15,0,0,1-.12,0,.11.11,0,0,1,0-.11,2,2,0,0,1,.84-1.44,2.91,2.91,0,0,1,1.81-.55A2.63,2.63,0,0,1,156.28,76.33Zm-1,6a1.39,1.39,0,0,0,.56-1.18V79.86a.05.05,0,0,0-.06-.06h-1.36a2.24,2.24,0,0,0-1.4.41,1.39,1.39,0,0,0-.53,1.16,1.22,1.22,0,0,0,.41,1,1.52,1.52,0,0,0,1,.34A2.19,2.19,0,0,0,155.32,82.29Z" transform="translate(-43.1 -26)"/><path d="M158.92,83.4V72.91c0-.11.05-.16.15-.16h.79a.14.14,0,0,1,.16.16V83.4a.14.14,0,0,1-.16.15h-.79A.13.13,0,0,1,158.92,83.4Z" transform="translate(-43.1 -26)"/><path d="M171.21,73.71h-4.62s-.07,0-.07.06v3.82a.06.06,0,0,0,.07.07h3.11c.11,0,.16,0,.16.15v.65c0,.1-.05.15-.16.15h-3.11s-.07,0-.07.06v3.86s0,.06.07.06h4.62a.14.14,0,0,1,.16.16v.65c0,.1-.05.15-.16.15h-5.63a.13.13,0,0,1-.15-.15V72.91c0-.11,0-.16.15-.16h5.63a.14.14,0,0,1,.16.16v.64A.14.14,0,0,1,171.21,73.71Z" transform="translate(-43.1 -26)"/><path d="M173.53,83.06a1.79,1.79,0,0,1-.73-1.47v-.14c0-.1,0-.15.16-.15h.75c.11,0,.16,0,.16.15v.11a1,1,0,0,0,.44.85,1.67,1.67,0,0,0,1.13.37,1.64,1.64,0,0,0,1.1-.36,1.12,1.12,0,0,0,.41-.89.93.93,0,0,0-.23-.65,1.76,1.76,0,0,0-.57-.42c-.23-.1-.54-.22-.94-.35a10.1,10.1,0,0,1-1.2-.49,2.45,2.45,0,0,1-.81-.69,1.82,1.82,0,0,1-.34-1.12,2,2,0,0,1,.7-1.57,3.23,3.23,0,0,1,3.71,0,1.92,1.92,0,0,1,.7,1.54v0a.14.14,0,0,1-.15.16h-.71a.14.14,0,0,1-.16-.16v-.06a1.08,1.08,0,0,0-.42-.87,1.74,1.74,0,0,0-1.14-.35,1.67,1.67,0,0,0-1.07.33,1.07,1.07,0,0,0-.41.86.94.94,0,0,0,.41.82,6,6,0,0,0,1.29.58,9.51,9.51,0,0,1,1.25.5,2.41,2.41,0,0,1,.84.68,1.8,1.8,0,0,1,.35,1.14,2,2,0,0,1-.71,1.57,2.92,2.92,0,0,1-1.9.59A3,3,0,0,1,173.53,83.06Z" transform="translate(-43.1 -26)"/><path d="M182.72,76.61h-1.46s-.07,0-.07.06V81.3a1.42,1.42,0,0,0,.29,1,1.27,1.27,0,0,0,.92.28h.26c.1,0,.15,0,.15.16v.65a.13.13,0,0,1-.15.15l-.48,0a2.4,2.4,0,0,1-1.53-.42,1.81,1.81,0,0,1-.52-1.51v-5a.05.05,0,0,0-.06-.06h-.77a.14.14,0,0,1-.16-.16V75.9a.14.14,0,0,1,.16-.16h.77a.05.05,0,0,0,.06-.06V73.92a.13.13,0,0,1,.15-.15H181a.13.13,0,0,1,.15.15v1.76s0,.06.07.06h1.46a.15.15,0,0,1,.16.16v.55A.14.14,0,0,1,182.72,76.61Z" transform="translate(-43.1 -26)"/><path d="M189,76.33a2.54,2.54,0,0,1,.7,1.88V83.4a.13.13,0,0,1-.15.15h-.79a.14.14,0,0,1-.16-.15v-.56s0,0,0,0,0,0-.05,0a2.17,2.17,0,0,1-.87.65,3.13,3.13,0,0,1-1.17.21,2.65,2.65,0,0,1-1.66-.52,2,2,0,0,1-.68-1.71,2.27,2.27,0,0,1,.79-1.88,3.4,3.4,0,0,1,2.17-.64h1.43a.05.05,0,0,0,.06-.06v-.59a1.84,1.84,0,0,0-.39-1.24,1.46,1.46,0,0,0-1.16-.45,1.64,1.64,0,0,0-1,.3,1.24,1.24,0,0,0-.48.79c0,.09-.06.14-.16.14l-.85,0a.16.16,0,0,1-.12,0,.14.14,0,0,1,0-.11,2,2,0,0,1,.84-1.44,2.91,2.91,0,0,1,1.81-.55A2.63,2.63,0,0,1,189,76.33Zm-1,6a1.37,1.37,0,0,0,.56-1.18V79.86a.05.05,0,0,0-.06-.06h-1.35a2.25,2.25,0,0,0-1.41.41,1.38,1.38,0,0,0-.52,1.16,1.22,1.22,0,0,0,.4,1,1.54,1.54,0,0,0,1.05.34A2.16,2.16,0,0,0,188.08,82.29Z" transform="translate(-43.1 -26)"/><path d="M194.67,76.61h-1.46a.05.05,0,0,0-.06.06V81.3a1.42,1.42,0,0,0,.28,1,1.27,1.27,0,0,0,.92.28h.26a.14.14,0,0,1,.16.16v.65c0,.1-.05.15-.16.15l-.48,0a2.39,2.39,0,0,1-1.52-.42,1.81,1.81,0,0,1-.53-1.51v-5a.05.05,0,0,0-.06-.06h-.77c-.1,0-.15,0-.15-.16V75.9a.14.14,0,0,1,.15-.16H192a.05.05,0,0,0,.06-.06V73.92c0-.1,0-.15.16-.15H193c.11,0,.16,0,.16.15v1.76a.05.05,0,0,0,.06.06h1.46a.14.14,0,0,1,.16.16v.55A.14.14,0,0,1,194.67,76.61Z" transform="translate(-43.1 -26)"/><path d="M200.1,82.41a1.74,1.74,0,0,0,.61-.8.14.14,0,0,1,.18-.11l.71.14a.13.13,0,0,1,.1.07.14.14,0,0,1,0,.11,2.55,2.55,0,0,1-1,1.36,3.15,3.15,0,0,1-3.52-.1,2.56,2.56,0,0,1-.87-1.61,5.81,5.81,0,0,1-.08-.91c0-.35,0-.64,0-.87V79.2a11,11,0,0,1,.06-1.28,2.54,2.54,0,0,1,.86-1.67,3,3,0,0,1,3.77,0,2.64,2.64,0,0,1,.84,1.79c0,.34,0,1,0,1.86,0,.11-.05.16-.15.16h-4.26a.05.05,0,0,0-.06.06c0,.32,0,.67,0,1.06a1.67,1.67,0,0,0,.53,1.08,1.7,1.7,0,0,0,1.17.41A1.66,1.66,0,0,0,200.1,82.41ZM197.91,77a1.68,1.68,0,0,0-.52,1.08q0,.64,0,1.08a.05.05,0,0,0,.06.06h3.26a.05.05,0,0,0,.06-.06c0-.3,0-.66-.06-1.07a1.78,1.78,0,0,0-.52-1.08,1.76,1.76,0,0,0-2.25,0Z" transform="translate(-43.1 -26)"/></g></svg>